<svg width="104" height="101" viewBox="0 0 104 101" fill="none" xmlns="http://www.w3.org/2000/svg">
<path d="M95.3334 92.5832L78.0001 75.7498H34.6667C32.2834 75.7498 30.2431 74.9257 28.5459 73.2774C26.8487 71.6292 26.0001 69.6478 26.0001 67.3332V63.1248H73.6667C76.0501 63.1248 78.0904 62.3007 79.7876 60.6524C81.4848 59.0042 82.3334 57.0228 82.3334 54.7082V25.2498H86.6667C89.0501 25.2498 91.0904 26.074 92.7876 27.7222C94.4848 29.3705 95.3334 31.3519 95.3334 33.6665V92.5832ZM17.3334 51.2363L22.4251 46.2915H65.0001V16.8332H17.3334V51.2363ZM8.66675 71.5415V16.8332C8.66675 14.5186 9.51536 12.5372 11.2126 10.8889C12.9098 9.24064 14.9501 8.4165 17.3334 8.4165H65.0001C67.3834 8.4165 69.4237 9.24064 71.1209 10.8889C72.8181 12.5372 73.6667 14.5186 73.6667 16.8332V46.2915C73.6667 48.6061 72.8181 50.5875 71.1209 52.2358C69.4237 53.884 67.3834 54.7082 65.0001 54.7082H26.0001L8.66675 71.5415Z" fill="#5D782F"/>
</svg>
